<svg width="24" height="26" viewBox="0 0 24 26" fill="none" xmlns="http://www.w3.org/2000/svg">
<path opacity="0.4" d="M17.7753 25.5H6.2245C2.86142 25.5 0.124878 22.7888 0.124878 19.4557V12.7943C0.124878 9.46118 2.86142 6.75 6.2245 6.75H17.7753C21.1383 6.75 23.8749 9.46118 23.8749 12.7943V19.4557C23.8749 22.7888 21.1383 25.5 17.7753 25.5Z" fill="white"/>
<path d="M16.6939 10.5C16.18 10.5 15.7628 10.0954 15.7628 9.59693V5.94612C15.7628 3.93889 14.0794 2.30614 12.0112 2.30614C11.059 2.30614 10.0596 2.677 9.34827 3.35972C8.63568 4.04485 8.2409 4.95635 8.23717 5.92926V9.59693C8.23717 10.0954 7.82005 10.5 7.30609 10.5C6.79213 10.5 6.375 10.0954 6.375 9.59693V5.94612C6.38121 4.46628 6.97214 3.10084 8.0373 2.07857C9.10122 1.05388 10.4767 0.539735 12.0149 0.5C15.1061 0.5 17.625 2.94311 17.625 5.94612V9.59693C17.625 10.0954 17.2079 10.5 16.6939 10.5Z" fill="white"/>
</svg>
