<svg width="116" height="108" viewBox="0 0 116 108" fill="none" xmlns="http://www.w3.org/2000/svg">
<path d="M27.3492 41.2363C27.7167 41.6566 28.0126 42.1328 28.2257 42.6468L34.7045 61.6263L37.9528 71.168C38.2271 72.1652 38.6498 73.1158 39.2072 73.9891C40.4826 75.6314 42.6726 76.3057 44.6903 75.6771L75.226 65.3162C76.566 64.9333 78.0005 65.0885 79.2141 65.7474C80.2254 66.2965 81.0141 67.1579 81.4666 68.1906L81.6968 68.8295C85.1827 86.9837 76.0828 105.343 59.3376 113.94C42.5925 122.536 22.1971 119.319 9.2247 106.036C5.47552 102.171 2.55609 97.6014 0.63779 92.5948C0.00441508 91.1302 -0.507243 89.6166 -0.8922 88.0688C-6.03614 68.9823 3.13787 48.8317 21.105 39.7522C23.3002 38.7817 25.8708 39.3927 27.3492 41.2363Z" fill="#3FDCAF"/>
<path opacity="0.4" d="M35.5895 21.2408C57.023 16.0782 79.0171 26.5923 87.9859 46.2885L87.9938 46.4495L87.9591 46.6959L88.135 47.2997C88.3018 48.1175 88.1986 48.9749 87.8308 49.7437C87.4476 50.5445 86.8046 51.1923 86.0116 51.5893L85.5188 51.7966L50.2825 63.7283C49.1212 64.1656 47.8306 64.0992 46.7316 63.5457C45.8157 63.0844 45.1047 62.321 44.7142 61.3978L32.7129 26.236C32.6386 26.1262 32.6034 25.9949 32.6129 25.8626C32.3813 24.8668 32.5658 23.8174 33.1251 22.949C33.6844 22.0805 34.572 21.4653 35.5895 21.2408Z" fill="#3FDCAF"/>
</svg>
